<svg id="Capa_1" enable-background="new 0 0 512 512" height="512" viewBox="0 0 512 512" width="512" xmlns="http://www.w3.org/2000/svg"><g><path d="m420.412 91.271 7.23-7.23c2.928-2.928 2.928-7.675-.001-10.603-2.927-2.929-7.674-2.928-10.603 0l-12.531 12.532c-2.928 2.928-2.928 7.675 0 10.603l40.201 40.201c.943.943.943 2.477 0 3.419l-22.89 22.89c-.939.942-2.475.943-3.417 0l-40.202-40.202c-1.407-1.406-3.313-2.196-5.302-2.196s-3.895.79-5.302 2.196l-40.201 40.202c-.941.943-2.477.942-3.418 0l-22.89-22.89c-.943-.943-.943-2.476 0-3.419l40.201-40.201c2.927-2.928 2.927-7.675 0-10.603l-40.201-40.202c-.943-.943-.943-2.476 0-3.418l22.89-22.89c.616-.616 1.334-.708 1.709-.708.374 0 1.092.092 1.708.708l40.201 40.201c2.929 2.928 7.675 2.928 10.604 0l40.202-40.201c.616-.616 1.334-.708 1.708-.708.375 0 1.093.092 1.709.708l22.89 22.89c.943.943.943 2.476 0 3.418l-3.089 3.089c-2.927 2.928-2.927 7.675 0 10.603 2.929 2.927 7.675 2.927 10.604 0l3.089-3.089c6.789-6.789 6.789-17.835 0-24.624l-22.89-22.89c-3.289-3.289-7.661-5.1-12.313-5.1-4.651 0-9.023 1.811-12.312 5.1l-34.9 34.9-34.899-34.9c-3.289-3.289-7.661-5.1-12.312-5.1-4.652 0-9.024 1.811-12.313 5.1l-22.89 22.89c-6.789 6.789-6.789 17.835 0 24.624l34.901 34.901-34.901 34.901c-6.788 6.789-6.788 17.834 0 24.623l22.89 22.89c6.792 6.79 17.835 6.788 24.625 0l34.899-34.901 34.9 34.901c3.395 3.394 7.854 5.092 12.313 5.092 4.458 0 8.917-1.698 12.312-5.092l22.89-22.891c6.788-6.789 6.788-17.834 0-24.623z"/><g><g><path d="m249.545 177.981c2.225-3.918 4.113-7.239 4.443-7.808 21.099-36.31 21.288-65.902.635-98.949-13.454-21.528-36.011-31.062-52.565-35.269-25.369-6.446-55.777.624-75.775 9.392-14.572 6.389-25.637 13.796-33.025 22.089-3.193-2.69-6.69-5.407-8.98-6.517-13.645-6.613-29.498-6.947-43.497-.915-14.262 6.145-25.13 18.181-29.815 33.02-5.412 17.143-2.72 47.909 19.634 84.879-17.052 1.061-30.6 15.261-30.6 32.574 0 18 14.644 32.645 32.645 32.645h5.032c3.036 12.848 8.496 25.029 16.222 36.003 2.382 3.385 7.06 4.199 10.446 1.815 3.385-2.383 4.199-7.06 1.815-10.446-10.662-15.146-16.298-32.979-16.298-51.572v-30.943c10.082-3.374 31.801-12 49.733-28.447 14.927 9.334 60.126 33.403 129.334 33.401.109 0 .22-.002.329-.002v25.991c0 49.46-40.239 89.698-89.698 89.698-17.972 0-35.31-5.294-50.136-15.309-3.433-2.318-8.092-1.415-10.409 2.017-2.318 3.431-1.415 8.092 2.016 10.409 17.316 11.695 37.555 17.877 58.53 17.877 49.4 0 90.913-34.394 101.864-80.492h5.052c18 0 32.645-14.645 32.645-32.645-.001-16.965-13.011-30.944-29.577-32.496zm-216.9 50.146c-9.732 0-17.65-7.918-17.65-17.65s7.918-17.65 17.65-17.65h2.223v26.094c0 3.09.149 6.159.413 9.207h-2.636zm208.38-65.489c-.611 1.05-5.714 10.043-8.683 15.278-41.504.485-73.947-8.453-94.058-16.178-22.571-8.67-34.988-17.742-35.1-17.824-1.336-.994-2.908-1.481-4.471-1.481-1.976 0-3.939.778-5.4 2.294-16.04 16.637-37.979 25.514-47.771 28.866-21.745-34.325-24.645-62.222-20.277-76.052 3.372-10.682 11.19-19.344 21.449-23.764 9.995-4.307 21.303-4.074 31.005.628 1.471.763 6.885 5.221 11.587 9.538 1.652 1.517 3.895 2.218 6.122 1.902 2.222-.314 4.187-1.608 5.354-3.525 5.114-8.401 16.015-16.437 31.524-23.237 17.714-7.768 44.371-14.104 66.059-8.591 13.893 3.531 32.725 11.373 43.543 28.683 17.525 28.04 17.269 52.222-.883 83.463zm5.451 65.489h-2.632c.266-3.035.409-6.104.409-9.207v-26.094h2.223c9.732 0 17.65 7.917 17.65 17.65s-7.918 17.651-17.65 17.651z"/><path d="m107.596 270.24c-1.782 3.738-.195 8.212 3.543 9.994 3.733 1.779 8.211.195 9.993-3.542 3.422-7.178 10.636-11.817 18.38-11.817 7.877 0 15.121 4.616 18.452 11.76 1.272 2.728 3.976 4.33 6.799 4.33 1.061 0 2.139-.226 3.164-.705 3.753-1.75 5.376-6.211 3.626-9.964-5.784-12.402-18.362-20.416-32.041-20.416-13.493 0-26.021 7.992-31.916 20.36z"/><path d="m101.007 199.305c-10.076 0-19.428 5.959-23.824 15.183-1.783 3.737-.197 8.212 3.541 9.994s8.213.197 9.993-3.541c1.924-4.034 5.963-6.641 10.29-6.641 4.409 0 8.465 2.585 10.33 6.584 1.272 2.727 3.976 4.329 6.799 4.329 1.061 0 2.14-.226 3.165-.705 3.752-1.751 5.375-6.212 3.625-9.964-4.319-9.257-13.708-15.239-23.919-15.239z"/><path d="m167.756 220.941c1.924-4.034 5.963-6.641 10.29-6.641 4.41 0 8.464 2.584 10.329 6.583 1.272 2.728 3.976 4.33 6.799 4.33 1.061 0 2.139-.226 3.164-.704 3.752-1.75 5.376-6.211 3.625-9.964-4.318-9.258-13.706-15.24-23.918-15.24-10.075 0-19.427 5.959-23.824 15.183-1.783 3.737-.197 8.212 3.541 9.994 3.739 1.781 8.214.196 9.994-3.541z"/></g></g><g><g><path d="m479.234 361.231h-1.625l.001-40.147c0-58.232-46.974-105.608-104.713-105.608h-.002c-57.739 0-104.712 47.376-104.712 105.608v40.147h-1.623c-18.067 0-32.766 14.698-32.766 32.765v.232c0 18.067 14.699 32.765 32.766 32.765h4.439c10.933 46.528 52.467 81.25 101.896 81.25s90.964-34.722 101.897-81.25h4.442c18.067 0 32.766-14.698 32.766-32.765v-.232c0-18.067-14.699-32.765-32.766-32.765zm-212.673 50.768c-9.799 0-17.771-7.972-17.771-17.771v-.232c0-9.799 7.972-17.77 17.771-17.77h1.623v26.41c0 3.156.146 6.277.416 9.363zm196.053-9.364c0 49.964-40.247 90.613-89.719 90.613-49.47 0-89.718-40.649-89.718-90.613v-23.505c4.497-5.869 17.368-23.053 25.54-37.884.559-1.014 1.587-1.645 2.685-1.645h122.989c1.097 0 2.127.631 2.686 1.646 8.169 14.828 21.037 32.007 25.538 37.879v23.509zm.002-48.982c-4.311-6.233-8.88-13.242-12.406-19.642-3.196-5.801-9.258-9.404-15.819-9.404h-122.989c-6.562 0-12.624 3.604-15.818 9.404-3.523 6.394-8.093 13.403-12.407 19.639v-32.567c0-49.964 40.248-90.613 89.72-90.613s89.719 40.649 89.719 90.613zm34.389 40.575c0 9.799-7.972 17.771-17.771 17.771h-2.042c.27-3.086.416-6.208.416-9.363v-26.41h1.625c9.799 0 17.771 7.972 17.771 17.77v.232z"/><path d="m372.848 425.837c-13.507 0-26.04 8.061-31.932 20.535-1.769 3.744-.167 8.213 3.577 9.981 3.746 1.768 8.214.167 9.981-3.577 3.427-7.256 10.64-11.944 18.374-11.944 7.868 0 15.11 4.666 18.448 11.887 1.266 2.74 3.977 4.354 6.81 4.354 1.052 0 2.122-.223 3.141-.694 3.758-1.737 5.397-6.192 3.66-9.951-5.782-12.509-18.366-20.591-32.059-20.591z"/><path d="m342.947 391.885v-15.319c0-4.141-3.356-7.497-7.497-7.497s-7.497 3.357-7.497 7.497v15.319c0 4.141 3.356 7.497 7.497 7.497s7.497-3.357 7.497-7.497z"/><path d="m410.345 369.069c-4.141 0-7.497 3.357-7.497 7.497v15.319c0 4.141 3.356 7.497 7.497 7.497s7.497-3.357 7.497-7.497v-15.319c0-4.141-3.356-7.497-7.497-7.497z"/></g></g></g></svg>